<?xml version="1.0" standalone="no"?>
<!DOCTYPE svg PUBLIC "-//W3C//DTD SVG 20010904//EN"
 "http://www.w3.org/TR/2001/REC-SVG-20010904/DTD/svg10.dtd">
<svg version="1.0" xmlns="http://www.w3.org/2000/svg"
 width="700.000000pt" height="700.000000pt" viewBox="0 0 700.000000 700.000000"
 preserveAspectRatio="xMidYMid meet">
<metadata>
Created by potrace 1.14, written by Peter Selinger 2001-2017
</metadata>
<g transform="translate(0.000000,700.000000) scale(0.100000,-0.100000)"
fill="#000000" stroke="none">
<path d="M3119 4748 c-1 -2 -3 -58 -5 -125 -3 -93 -1 -123 9 -124 69 -4 229
-4 236 1 8 4 15 143 12 233 -1 15 -14 17 -126 17 -69 0 -126 -1 -126 -2z"/>
<path d="M3629 4708 c0 -47 0 -111 1 -1205 l0 -753 120 0 120 0 1 53 c0 28 2
196 2 372 l2 320 125 0 125 0 0 123 0 122 -25 1 c-14 1 -67 1 -118 1 -82 0
-94 2 -100 18 -4 10 -7 180 -7 377 l0 358 123 3 c87 2 122 6 123 15 5 73 3
206 -3 220 -8 15 -30 17 -248 17 l-240 0 -1 -42z"/>
<path d="M4380 4369 l0 -126 118 0 c64 0 122 3 127 8 10 7 12 225 3 235 -3 2
-60 5 -126 7 l-122 2 0 -126z"/>
<path d="M3118 4236 c-3 -9 -2 -1613 1 -1713 l1 -33 125 0 c93 0 125 3 125 13
1 17 1 1697 1 1723 -1 21 -6 21 -125 22 -85 0 -126 -4 -128 -12z"/>
<path d="M4634 4135 c1 -60 0 -118 -2 -127 -4 -16 -18 -18 -128 -18 l-124 0 0
-122 0 -123 125 0 c69 0 126 3 126 8 1 4 2 58 3 120 l1 112 125 1 125 1 3 127
c2 97 0 126 -10 127 -7 0 -65 1 -129 2 l-116 2 1 -110z"/>
<path d="M2118 3238 c0 -2 -2 -58 -3 -125 l-1 -123 123 0 c91 0 123 3 124 13
1 13 1 110 0 190 l-1 47 -120 0 c-66 0 -121 -1 -122 -2z"/>
<path d="M2368 2990 c-1 -3 -2 -116 -2 -252 -1 -159 3 -248 9 -249 30 -3 230
3 234 7 3 3 6 115 7 249 2 245 2 245 -19 246 -70 4 -227 3 -229 -1z"/>
<path d="M2622 2361 l3 -126 248 -3 c136 -2 247 1 248 5 1 11 1 214 0 236 -1
16 -18 17 -251 15 l-251 -2 3 -125z"/>
</g>
</svg>
